<?xml version="1.0" encoding="utf-8" standalone="no"?>
<!DOCTYPE svg PUBLIC "-//W3C//DTD SVG 1.1//EN"
  "http://www.w3.org/Graphics/SVG/1.1/DTD/svg11.dtd">
<svg xmlns:xlink="http://www.w3.org/1999/xlink" width="512.39952pt" height="436.293562pt" viewBox="0 0 512.39952 436.293562" xmlns="http://www.w3.org/2000/svg" version="1.1">
 <metadata>
  <rdf:RDF xmlns:dc="http://purl.org/dc/elements/1.1/" xmlns:cc="http://creativecommons.org/ns#" xmlns:rdf="http://www.w3.org/1999/02/22-rdf-syntax-ns#">
   <cc:Work>
    <dc:type rdf:resource="http://purl.org/dc/dcmitype/StillImage"/>
    <dc:date>2023-05-12T10:22:55.608035</dc:date>
    <dc:format>image/svg+xml</dc:format>
    <dc:creator>
     <cc:Agent>
      <dc:title>Matplotlib v3.6.0, https://matplotlib.org/</dc:title>
     </cc:Agent>
    </dc:creator>
   </cc:Work>
  </rdf:RDF>
 </metadata>
 <defs>
  <style type="text/css">*{stroke-linejoin: round; stroke-linecap: butt}</style>
 </defs>
 <g id="figure_1">
  <g id="patch_1">
   <path d="M 0 436.293562 
L 512.39952 436.293562 
L 512.39952 0 
L 0 0 
z
" style="fill: #ffffff"/>
  </g>
  <g id="axes_1">
   <g id="patch_2">
    <path d="M 67.889914 375.583237 
L 288.804083 375.583237 
L 288.804083 34.731321 
L 67.889914 34.731321 
z
" style="fill: #ffffff"/>
   </g>
   <g id="matplotlib.axis_1">
    <g id="xtick_1">
     <g id="line2d_1">
      <defs>
       <path id="m7b41c38253" d="M 0 0 
L 0 3.5 
" style="stroke: #000000; stroke-width: 0.8"/>
      </defs>
      <g>
       <use xlink:href="#m7b41c38253" x="67.889914" y="375.583237" style="stroke: #000000; stroke-width: 0.8"/>
      </g>
     </g>
     <g id="text_1">
      <!-- $\mathdefault{0.0}$ -->
      <g transform="translate(53.672538 399.187642) scale(0.24 -0.24)">
       <defs>
        <path id="CMR17-30" d="M 2688 2025 
C 2688 2416 2682 3080 2413 3591 
C 2176 4039 1798 4198 1466 4198 
C 1158 4198 768 4058 525 3597 
C 269 3118 243 2524 243 2025 
C 243 1661 250 1106 448 619 
C 723 -39 1216 -128 1466 -128 
C 1760 -128 2208 -7 2470 600 
C 2662 1042 2688 1559 2688 2025 
z
M 1466 -26 
C 1056 -26 813 325 723 812 
C 653 1188 653 1738 653 2096 
C 653 2588 653 2997 736 3387 
C 858 3929 1216 4096 1466 4096 
C 1728 4096 2067 3923 2189 3400 
C 2272 3036 2278 2607 2278 2096 
C 2278 1680 2278 1169 2202 792 
C 2067 95 1690 -26 1466 -26 
z
" transform="scale(0.015625)"/>
        <path id="CMMI12-3a" d="M 1178 307 
C 1178 492 1024 619 870 619 
C 685 619 557 466 557 313 
C 557 128 710 0 864 0 
C 1050 0 1178 153 1178 307 
z
" transform="scale(0.015625)"/>
       </defs>
       <use xlink:href="#CMR17-30" transform="scale(0.996264)"/>
       <use xlink:href="#CMMI12-3a" transform="translate(45.690477 0) scale(0.996264)"/>
       <use xlink:href="#CMR17-30" transform="translate(72.787654 0) scale(0.996264)"/>
      </g>
     </g>
    </g>
    <g id="xtick_2">
     <g id="line2d_2">
      <g>
       <use xlink:href="#m7b41c38253" x="141.52797" y="375.583237" style="stroke: #000000; stroke-width: 0.8"/>
      </g>
     </g>
     <g id="text_2">
      <!-- $\mathdefault{0.2}$ -->
      <g transform="translate(127.310595 399.187642) scale(0.24 -0.24)">
       <defs>
        <path id="CMR17-32" d="M 2669 989 
L 2554 989 
C 2490 536 2438 459 2413 420 
C 2381 369 1920 369 1830 369 
L 602 369 
C 832 619 1280 1072 1824 1597 
C 2214 1967 2669 2402 2669 3035 
C 2669 3790 2067 4224 1395 4224 
C 691 4224 262 3604 262 3030 
C 262 2780 448 2748 525 2748 
C 589 2748 781 2787 781 3010 
C 781 3207 614 3264 525 3264 
C 486 3264 448 3258 422 3245 
C 544 3790 915 4058 1306 4058 
C 1862 4058 2227 3617 2227 3035 
C 2227 2479 1901 2000 1536 1584 
L 262 146 
L 262 0 
L 2515 0 
L 2669 989 
z
" transform="scale(0.015625)"/>
       </defs>
       <use xlink:href="#CMR17-30" transform="scale(0.996264)"/>
       <use xlink:href="#CMMI12-3a" transform="translate(45.690477 0) scale(0.996264)"/>
       <use xlink:href="#CMR17-32" transform="translate(72.787654 0) scale(0.996264)"/>
      </g>
     </g>
    </g>
    <g id="xtick_3">
     <g id="line2d_3">
      <g>
       <use xlink:href="#m7b41c38253" x="215.166026" y="375.583237" style="stroke: #000000; stroke-width: 0.8"/>
      </g>
     </g>
     <g id="text_3">
      <!-- $\mathdefault{0.4}$ -->
      <g transform="translate(200.948651 399.187642) scale(0.24 -0.24)">
       <defs>
        <path id="CMR17-34" d="M 2150 4122 
C 2150 4256 2144 4256 2029 4256 
L 128 1254 
L 128 1088 
L 1779 1088 
L 1779 457 
C 1779 224 1766 160 1318 160 
L 1197 160 
L 1197 0 
C 1402 0 1747 0 1965 0 
C 2182 0 2528 0 2733 0 
L 2733 160 
L 2611 160 
C 2163 160 2150 224 2150 457 
L 2150 1088 
L 2803 1088 
L 2803 1254 
L 2150 1254 
L 2150 4122 
z
M 1798 3703 
L 1798 1254 
L 256 1254 
L 1798 3703 
z
" transform="scale(0.015625)"/>
       </defs>
       <use xlink:href="#CMR17-30" transform="scale(0.996264)"/>
       <use xlink:href="#CMMI12-3a" transform="translate(45.690477 0) scale(0.996264)"/>
       <use xlink:href="#CMR17-34" transform="translate(72.787654 0) scale(0.996264)"/>
      </g>
     </g>
    </g>
    <g id="xtick_4">
     <g id="line2d_4">
      <g>
       <use xlink:href="#m7b41c38253" x="288.804083" y="375.583237" style="stroke: #000000; stroke-width: 0.8"/>
      </g>
     </g>
     <g id="text_4">
      <!-- $\mathdefault{0.6}$ -->
      <g transform="translate(274.586707 399.187642) scale(0.24 -0.24)">
       <defs>
        <path id="CMR17-36" d="M 678 2176 
C 678 3690 1395 4032 1811 4032 
C 1946 4032 2272 4009 2400 3776 
C 2298 3776 2106 3776 2106 3553 
C 2106 3381 2246 3323 2336 3323 
C 2394 3323 2566 3348 2566 3560 
C 2566 3954 2246 4179 1805 4179 
C 1043 4179 243 3390 243 1984 
C 243 253 966 -128 1478 -128 
C 2099 -128 2688 427 2688 1283 
C 2688 2081 2170 2662 1517 2662 
C 1126 2662 838 2407 678 1960 
L 678 2176 
z
M 1478 25 
C 691 25 691 1200 691 1436 
C 691 1896 909 2560 1504 2560 
C 1613 2560 1926 2560 2138 2120 
C 2253 1870 2253 1609 2253 1289 
C 2253 944 2253 690 2118 434 
C 1978 171 1773 25 1478 25 
z
" transform="scale(0.015625)"/>
       </defs>
       <use xlink:href="#CMR17-30" transform="scale(0.996264)"/>
       <use xlink:href="#CMMI12-3a" transform="translate(45.690477 0) scale(0.996264)"/>
       <use xlink:href="#CMR17-36" transform="translate(72.787654 0) scale(0.996264)"/>
      </g>
     </g>
    </g>
    <g id="text_5">
     <!-- Transmission $\lambda$ -->
     <g transform="translate(107.479603 424.442805) scale(0.24 -0.24)">
      <defs>
       <path id="CMSS17-54" d="M 2317 3968 
L 2848 3968 
C 2925 3968 3002 3968 3078 3968 
L 3878 3968 
L 3878 4376 
L 218 4376 
L 218 3968 
L 1018 3968 
C 1094 3968 1171 3968 1248 3968 
L 1779 3968 
L 1779 -32 
L 2317 -32 
L 2317 3968 
z
" transform="scale(0.015625)"/>
       <path id="CMSS17-72" d="M 954 1363 
C 954 1965 1395 2368 1958 2368 
L 1958 2789 
C 1549 2789 1165 2585 934 2253 
L 934 2758 
L 480 2758 
L 480 0 
L 954 0 
L 954 1363 
z
" transform="scale(0.015625)"/>
       <path id="CMSS17-61" d="M 2406 1791 
C 2406 2392 1978 2808 1402 2808 
C 1120 2808 813 2757 461 2553 
L 499 2135 
C 659 2248 934 2432 1395 2432 
C 1722 2432 1920 2180 1920 1782 
L 1920 1536 
C 896 1536 256 1238 256 726 
C 256 461 416 -64 947 -64 
C 1043 -64 1562 -64 1933 217 
L 1933 -19 
L 2406 -19 
L 2406 1791 
z
M 1920 816 
C 1920 701 1920 548 1728 434 
C 1562 325 1350 325 1261 325 
C 941 325 723 511 723 744 
C 723 1211 1722 1211 1920 1211 
L 1920 816 
z
" transform="scale(0.015625)"/>
       <path id="CMSS17-6e" d="M 2618 1877 
C 2618 2283 2522 2816 1798 2816 
C 1389 2816 1120 2606 941 2389 
L 941 2758 
L 474 2758 
L 474 0 
L 960 0 
L 960 1559 
C 960 1964 1114 2428 1549 2428 
C 2112 2428 2131 2048 2131 1829 
L 2131 0 
L 2618 0 
L 2618 1877 
z
" transform="scale(0.015625)"/>
       <path id="CMSS17-73" d="M 2061 2627 
C 1683 2807 1389 2807 1197 2807 
C 742 2807 198 2648 198 2003 
C 198 1359 902 1218 1094 1179 
C 1389 1122 1715 1058 1715 740 
C 1715 337 1254 337 1171 337 
C 915 337 563 407 243 638 
L 166 210 
C 531 0 883 -64 1178 -64 
C 1965 -64 2163 416 2163 781 
C 2163 1094 1984 1305 1862 1401 
C 1651 1568 1574 1587 1050 1696 
C 960 1709 646 1779 646 2066 
C 646 2432 1050 2432 1139 2432 
C 1555 2432 1811 2303 1984 2208 
L 2061 2627 
z
" transform="scale(0.015625)"/>
       <path id="CMSS17-6d" d="M 4288 1877 
C 4288 2308 4179 2816 3462 2816 
C 2982 2816 2694 2516 2566 2331 
C 2451 2670 2182 2816 1798 2816 
C 1363 2816 1088 2568 941 2389 
L 941 2758 
L 474 2758 
L 474 0 
L 960 0 
L 960 1559 
C 960 1939 1101 2428 1555 2428 
C 2138 2428 2138 2016 2138 1829 
L 2138 0 
L 2624 0 
L 2624 1559 
C 2624 1939 2765 2428 3219 2428 
C 3802 2428 3802 2016 3802 1829 
L 3802 0 
L 4288 0 
L 4288 1877 
z
" transform="scale(0.015625)"/>
       <path id="CMSS17-69" d="M 979 4183 
L 442 4183 
L 442 3648 
L 979 3648 
L 979 4183 
z
M 947 2739 
L 474 2739 
L 474 0 
L 947 0 
L 947 2739 
z
" transform="scale(0.015625)"/>
       <path id="CMSS17-6f" d="M 2829 1356 
C 2829 2176 2221 2816 1504 2816 
C 768 2816 173 2157 173 1356 
C 173 544 787 -64 1498 -64 
C 2227 -64 2829 563 2829 1356 
z
M 1504 337 
C 1050 337 659 709 659 1408 
C 659 2151 1114 2427 1498 2427 
C 1914 2427 2342 2126 2342 1408 
C 2342 683 1926 337 1504 337 
z
" transform="scale(0.015625)"/>
       <path id="CMMI12-15" d="M 1978 3965 
C 1818 4416 1312 4416 1229 4416 
C 1190 4416 1120 4416 1120 4352 
C 1120 4302 1158 4295 1190 4289 
C 1286 4276 1363 4263 1466 4080 
C 1530 3959 2189 2059 2189 2046 
C 2189 2040 2182 2033 2131 1982 
L 467 311 
C 390 234 339 183 339 102 
C 339 12 416 -64 518 -64 
C 544 -64 614 -51 653 -13 
C 755 82 1670 1194 2253 1881 
C 2419 1383 2624 797 2822 261 
C 2854 166 2886 76 2976 -6 
C 3040 -64 3053 -64 3232 -64 
L 3354 -64 
C 3379 -64 3424 -64 3424 -13 
C 3424 13 3418 19 3392 45 
C 3334 115 3290 229 3264 306 
L 1978 3965 
z
" transform="scale(0.015625)"/>
      </defs>
      <use xlink:href="#CMSS17-54" transform="scale(0.996264)"/>
      <use xlink:href="#CMSS17-72" transform="translate(56.012199 0) scale(0.996264)"/>
      <use xlink:href="#CMSS17-61" transform="translate(87.921971 0) scale(0.996264)"/>
      <use xlink:href="#CMSS17-6e" transform="translate(132.843892 0) scale(0.996264)"/>
      <use xlink:href="#CMSS17-73" transform="translate(181.048835 0) scale(0.996264)"/>
      <use xlink:href="#CMSS17-6d" transform="translate(216.962377 0) scale(0.996264)"/>
      <use xlink:href="#CMSS17-69" transform="translate(291.191631 0) scale(0.996264)"/>
      <use xlink:href="#CMSS17-73" transform="translate(313.372354 0) scale(0.996264)"/>
      <use xlink:href="#CMSS17-73" transform="translate(349.285896 0) scale(0.996264)"/>
      <use xlink:href="#CMSS17-69" transform="translate(385.199438 0) scale(0.996264)"/>
      <use xlink:href="#CMSS17-6f" transform="translate(407.380161 0) scale(0.996264)"/>
      <use xlink:href="#CMSS17-6e" transform="translate(454.223785 0) scale(0.996264)"/>
      <use xlink:href="#CMMI12-15" transform="translate(533.657841 0) scale(0.996264)"/>
     </g>
    </g>
   </g>
   <g id="matplotlib.axis_2">
    <g id="ytick_1">
     <g id="line2d_5">
      <defs>
       <path id="m658620b944" d="M 0 0 
L -3.5 0 
" style="stroke: #000000; stroke-width: 0.8"/>
      </defs>
      <g>
       <use xlink:href="#m658620b944" x="67.889914" y="307.440125" style="stroke: #000000; stroke-width: 0.8"/>
      </g>
     </g>
     <g id="text_6">
      <!-- $\mathdefault{0.2}$ -->
      <g transform="translate(32.455163 315.742327) scale(0.24 -0.24)">
       <use xlink:href="#CMR17-30" transform="scale(0.996264)"/>
       <use xlink:href="#CMMI12-3a" transform="translate(45.690477 0) scale(0.996264)"/>
       <use xlink:href="#CMR17-32" transform="translate(72.787654 0) scale(0.996264)"/>
      </g>
     </g>
    </g>
    <g id="ytick_2">
     <g id="line2d_6">
      <g>
       <use xlink:href="#m658620b944" x="67.889914" y="239.262924" style="stroke: #000000; stroke-width: 0.8"/>
      </g>
     </g>
     <g id="text_7">
      <!-- $\mathdefault{0.4}$ -->
      <g transform="translate(32.455163 247.565126) scale(0.24 -0.24)">
       <use xlink:href="#CMR17-30" transform="scale(0.996264)"/>
       <use xlink:href="#CMMI12-3a" transform="translate(45.690477 0) scale(0.996264)"/>
       <use xlink:href="#CMR17-34" transform="translate(72.787654 0) scale(0.996264)"/>
      </g>
     </g>
    </g>
    <g id="ytick_3">
     <g id="line2d_7">
      <g>
       <use xlink:href="#m658620b944" x="67.889914" y="171.085723" style="stroke: #000000; stroke-width: 0.8"/>
      </g>
     </g>
     <g id="text_8">
      <!-- $\mathdefault{0.6}$ -->
      <g transform="translate(32.455163 179.387925) scale(0.24 -0.24)">
       <use xlink:href="#CMR17-30" transform="scale(0.996264)"/>
       <use xlink:href="#CMMI12-3a" transform="translate(45.690477 0) scale(0.996264)"/>
       <use xlink:href="#CMR17-36" transform="translate(72.787654 0) scale(0.996264)"/>
      </g>
     </g>
    </g>
    <g id="ytick_4">
     <g id="line2d_8">
      <g>
       <use xlink:href="#m658620b944" x="67.889914" y="102.908522" style="stroke: #000000; stroke-width: 0.8"/>
      </g>
     </g>
     <g id="text_9">
      <!-- $\mathdefault{0.8}$ -->
      <g transform="translate(32.455163 111.210724) scale(0.24 -0.24)">
       <defs>
        <path id="CMR17-38" d="M 1741 2264 
C 2144 2467 2554 2773 2554 3263 
C 2554 3841 1990 4179 1472 4179 
C 890 4179 378 3759 378 3180 
C 378 3021 416 2747 666 2505 
C 730 2442 998 2251 1171 2130 
C 883 1983 211 1634 211 934 
C 211 279 838 -128 1459 -128 
C 2144 -128 2720 362 2720 1010 
C 2720 1590 2330 1857 2074 2029 
L 1741 2264 
z
M 902 2822 
C 851 2854 595 3051 595 3351 
C 595 3739 998 4032 1459 4032 
C 1965 4032 2336 3676 2336 3262 
C 2336 2669 1670 2331 1638 2331 
C 1632 2331 1626 2331 1574 2370 
L 902 2822 
z
M 2080 1519 
C 2176 1449 2483 1240 2483 851 
C 2483 381 2010 25 1472 25 
C 890 25 448 438 448 940 
C 448 1443 838 1862 1280 2060 
L 2080 1519 
z
" transform="scale(0.015625)"/>
       </defs>
       <use xlink:href="#CMR17-30" transform="scale(0.996264)"/>
       <use xlink:href="#CMMI12-3a" transform="translate(45.690477 0) scale(0.996264)"/>
       <use xlink:href="#CMR17-38" transform="translate(72.787654 0) scale(0.996264)"/>
      </g>
     </g>
    </g>
    <g id="ytick_5">
     <g id="line2d_9">
      <g>
       <use xlink:href="#m658620b944" x="67.889914" y="34.731321" style="stroke: #000000; stroke-width: 0.8"/>
      </g>
     </g>
     <g id="text_10">
      <!-- $\mathdefault{1.0}$ -->
      <g transform="translate(32.455163 43.033524) scale(0.24 -0.24)">
       <defs>
        <path id="CMR17-31" d="M 1702 4058 
C 1702 4192 1696 4192 1606 4192 
C 1357 3916 979 3827 621 3827 
C 602 3827 570 3827 563 3808 
C 557 3795 557 3782 557 3648 
C 755 3648 1088 3686 1344 3839 
L 1344 461 
C 1344 236 1331 160 781 160 
L 589 160 
L 589 0 
C 896 0 1216 0 1523 0 
C 1830 0 2150 0 2458 0 
L 2458 160 
L 2266 160 
C 1715 160 1702 230 1702 458 
L 1702 4058 
z
" transform="scale(0.015625)"/>
       </defs>
       <use xlink:href="#CMR17-31" transform="scale(0.996264)"/>
       <use xlink:href="#CMMI12-3a" transform="translate(45.690477 0) scale(0.996264)"/>
       <use xlink:href="#CMR17-30" transform="translate(72.787654 0) scale(0.996264)"/>
      </g>
     </g>
    </g>
    <g id="text_11">
     <!-- Prevalence per layer -->
     <g transform="translate(23.804405 298.96953) rotate(-90) scale(0.24 -0.24)">
      <defs>
       <path id="CMSS17-50" d="M 2106 1856 
C 2874 1856 3501 2453 3501 3158 
C 3501 3850 2899 4453 2067 4453 
L 570 4453 
L 570 0 
L 1107 0 
L 1107 1856 
L 2106 1856 
z
M 1926 4096 
C 2669 4096 2995 3627 2995 3157 
C 2995 2720 2694 2226 1926 2226 
L 1094 2226 
L 1094 4096 
L 1926 4096 
z
" transform="scale(0.015625)"/>
       <path id="CMSS17-65" d="M 2502 1377 
C 2502 1590 2490 2003 2285 2345 
C 2061 2713 1696 2816 1421 2816 
C 755 2816 192 2188 192 1375 
C 192 582 774 -64 1510 -64 
C 1798 -64 2150 19 2470 248 
C 2470 274 2458 414 2451 420 
C 2451 433 2432 630 2432 656 
C 2125 407 1773 325 1517 325 
C 1107 325 666 667 646 1377 
L 2502 1377 
z
M 698 1728 
C 781 2084 1062 2421 1421 2421 
C 1517 2421 1965 2421 2080 1728 
L 698 1728 
z
" transform="scale(0.015625)"/>
       <path id="CMSS17-76" d="M 2675 2752 
L 2176 2752 
L 1747 1556 
C 1613 1165 1421 627 1389 352 
L 1382 352 
C 1370 468 1318 634 1286 749 
C 1248 890 1197 1056 1158 1172 
L 595 2752 
L 83 2752 
L 1094 0 
L 1664 0 
L 2675 2752 
z
" transform="scale(0.015625)"/>
       <path id="CMSS17-6c" d="M 947 4416 
L 474 4416 
L 474 0 
L 947 0 
L 947 4416 
z
" transform="scale(0.015625)"/>
       <path id="CMSS17-63" d="M 2464 2541 
C 2464 2585 2170 2714 2093 2739 
C 1882 2816 1613 2816 1542 2816 
C 710 2816 211 2093 211 1363 
C 211 595 768 -64 1517 -64 
C 1946 -64 2253 76 2502 242 
L 2464 664 
C 2189 453 1869 337 1523 337 
C 1024 337 698 774 698 1369 
C 698 1831 909 2414 1549 2414 
C 1901 2414 2099 2343 2394 2145 
L 2464 2541 
z
" transform="scale(0.015625)"/>
       <path id="CMSS17-70" d="M 966 333 
C 1178 129 1466 -5 1773 -5 
C 2368 -5 2880 603 2880 1412 
C 2880 2159 2496 2816 1946 2816 
C 1626 2816 1242 2702 954 2472 
L 954 2765 
L 480 2765 
L 480 -1216 
L 966 -1216 
L 966 333 
z
M 966 2100 
C 1018 2176 1235 2415 1587 2415 
C 2035 2415 2394 1960 2394 1412 
C 2394 787 1958 384 1530 384 
C 1402 384 1267 415 1139 523 
C 966 674 966 768 966 857 
L 966 2100 
z
" transform="scale(0.015625)"/>
       <path id="CMSS17-79" d="M 2675 2752 
L 2176 2752 
C 1632 1294 1446 702 1434 383 
L 1427 383 
C 1408 696 1126 1460 902 2007 
L 602 2752 
L 83 2752 
L 1216 13 
C 1146 -178 1043 -465 1011 -529 
C 870 -885 774 -885 672 -885 
C 646 -885 442 -885 211 -809 
L 250 -1229 
C 410 -1261 570 -1280 685 -1280 
C 845 -1280 1165 -1280 1459 -497 
L 2675 2752 
z
" transform="scale(0.015625)"/>
      </defs>
      <use xlink:href="#CMSS17-50" transform="scale(0.996264)"/>
      <use xlink:href="#CMSS17-72" transform="translate(59.735586 0) scale(0.996264)"/>
      <use xlink:href="#CMSS17-65" transform="translate(91.645359 0) scale(0.996264)"/>
      <use xlink:href="#CMSS17-76" transform="translate(133.284181 0) scale(0.996264)"/>
      <use xlink:href="#CMSS17-61" transform="translate(176.284323 0) scale(0.996264)"/>
      <use xlink:href="#CMSS17-6c" transform="translate(221.206243 0) scale(0.996264)"/>
      <use xlink:href="#CMSS17-65" transform="translate(243.386966 0) scale(0.996264)"/>
      <use xlink:href="#CMSS17-6e" transform="translate(285.025788 0) scale(0.996264)"/>
      <use xlink:href="#CMSS17-63" transform="translate(333.230731 0) scale(0.996264)"/>
      <use xlink:href="#CMSS17-65" transform="translate(374.869554 0) scale(0.996264)"/>
      <use xlink:href="#CMSS17-70" transform="translate(447.737488 0) scale(0.996264)"/>
      <use xlink:href="#CMSS17-65" transform="translate(498.54487 0) scale(0.996264)"/>
      <use xlink:href="#CMSS17-72" transform="translate(540.183692 0) scale(0.996264)"/>
      <use xlink:href="#CMSS17-6c" transform="translate(603.322578 0) scale(0.996264)"/>
      <use xlink:href="#CMSS17-61" transform="translate(625.503301 0) scale(0.996264)"/>
      <use xlink:href="#CMSS17-79" transform="translate(667.822767 0) scale(0.996264)"/>
      <use xlink:href="#CMSS17-65" transform="translate(708.220455 0) scale(0.996264)"/>
      <use xlink:href="#CMSS17-72" transform="translate(749.859277 0) scale(0.996264)"/>
     </g>
    </g>
   </g>
   <g id="line2d_10">
    <path d="M 67.889914 375.617324 
L 140.055209 375.61475 
L 141.15978 373.994047 
L 145.946254 366.363736 
L 152.205488 355.919875 
L 166.564909 331.325666 
L 175.401476 316.49508 
L 182.397091 305.170506 
L 189.024517 294.864499 
L 195.283751 285.544335 
L 201.174796 277.153426 
L 207.06584 269.135446 
L 212.956885 261.486646 
L 218.847929 254.199185 
L 224.738974 247.261132 
L 230.630018 240.658852 
L 236.889253 233.995894 
L 243.148488 227.677231 
L 249.407723 221.683773 
L 255.666957 215.997454 
L 262.294382 210.291363 
L 268.921808 204.88832 
L 275.549233 199.769576 
L 282.544848 194.653899 
L 289.540463 189.814 
L 296.904269 184.996258 
L 304.268075 180.442362 
L 312.00007 175.923918 
L 320.100257 171.458311 
L 328.200443 167.246324 
L 336.668819 163.092628 
L 345.505386 159.009154 
L 354.710143 155.006471 
L 364.28309 151.093099 
L 373.856038 147.412553 
L 383.797175 143.816547 
L 394.106503 140.310534 
L 405.152212 136.784409 
L 416.934301 133.263057 
L 429.08458 129.867151 
L 435.712005 128.107497 
L 435.712005 128.107497 
" clip-path="url(#pfa928516b7)" style="fill: none; stroke: #8000ff; stroke-width: 1.5; stroke-linecap: square"/>
   </g>
   <g id="line2d_11">
    <path d="M 67.889914 375.617324 
L 140.055209 375.61238 
L 141.15978 372.551138 
L 144.841683 362.26915 
L 148.523586 352.602884 
L 152.205488 343.507807 
L 156.255582 334.110364 
L 160.305675 325.295393 
L 164.355768 317.011863 
L 168.405861 309.213073 
L 172.455954 301.857775 
L 176.874237 294.29556 
L 181.292521 287.173429 
L 185.710804 280.452861 
L 190.497278 273.586395 
L 195.283751 267.112969 
L 200.070225 260.998497 
L 205.224889 254.781418 
L 210.379553 248.912384 
L 215.902407 242.977558 
L 221.425261 237.377142 
L 226.948115 232.08216 
L 232.83916 226.742863 
L 239.098395 221.389589 
L 245.35763 216.337317 
L 251.616864 211.560823 
L 258.244289 206.778874 
L 264.871714 202.25668 
L 271.86733 197.741645 
L 279.231135 193.252517 
L 286.963131 188.804296 
L 294.695127 184.605262 
L 303.163504 180.267828 
L 311.63188 176.180264 
L 320.468447 172.157809 
L 330.041394 168.056269 
L 339.982532 164.052904 
L 350.29186 160.152486 
L 360.601188 156.484212 
L 372.015086 152.669697 
L 383.797175 148.978584 
L 395.947455 145.409848 
L 408.465924 141.962127 
L 421.720774 138.540995 
L 435.712005 135.161792 
L 435.712005 135.161792 
" clip-path="url(#pfa928516b7)" style="fill: none; stroke: #5641fd; stroke-width: 1.5; stroke-linecap: square"/>
   </g>
   <g id="line2d_12">
    <path d="M 67.889914 375.617324 
L 140.055209 375.614419 
L 141.15978 373.788632 
L 146.682634 363.929674 
L 156.255582 346.279347 
L 167.30129 326.04466 
L 174.665096 313.025883 
L 181.292521 301.765736 
L 187.551755 291.579381 
L 193.4428 282.410911 
L 199.333844 273.655935 
L 205.224889 265.31275 
L 211.115933 257.373174 
L 217.006978 249.825617 
L 222.898022 242.655421 
L 228.789067 235.846564 
L 234.680111 229.382002 
L 240.571156 223.244009 
L 246.4622 217.414858 
L 252.721435 211.541392 
L 258.98067 205.977451 
L 265.239905 200.704285 
L 271.86733 195.417484 
L 278.494755 190.416345 
L 285.12218 185.681439 
L 292.117795 180.952327 
L 299.481601 176.252532 
L 306.845406 171.816923 
L 314.577402 167.422903 
L 322.677589 163.087174 
L 330.777775 159.0037 
L 339.614342 154.814552 
L 348.082718 151.038558 
L 357.287475 147.177683 
L 366.860422 143.409529 
L 376.80156 139.739891 
L 387.479078 136.050823 
L 398.524787 132.485155 
L 409.570495 129.150608 
L 420.984394 125.925827 
L 433.134673 122.717408 
L 435.712005 122.06427 
L 435.712005 122.06427 
" clip-path="url(#pfa928516b7)" style="fill: none; stroke: #2c7ef7; stroke-width: 1.5; stroke-linecap: square"/>
   </g>
   <g id="line2d_13">
    <path d="M 67.889914 375.617324 
L 140.055209 375.612736 
L 141.15978 372.753327 
L 147.787205 355.139178 
L 153.310059 341.073642 
L 158.464723 328.524265 
L 163.619387 316.561552 
L 168.774051 305.190618 
L 173.560525 295.155275 
L 178.346998 285.610467 
L 183.133472 276.539831 
L 187.919946 267.923596 
L 192.706419 259.74131 
L 197.492893 251.972177 
L 202.279367 244.595063 
L 207.434031 237.064891 
L 212.588695 229.939691 
L 217.743358 223.195944 
L 222.898022 216.810467 
L 228.052686 210.760763 
L 233.575541 204.628565 
L 239.098395 198.834525 
L 244.621249 193.356487 
L 250.512293 187.837884 
L 256.403338 182.631532 
L 262.294382 177.715274 
L 268.553617 172.787426 
L 274.812852 168.142172 
L 281.440277 163.50919 
L 288.067702 159.147895 
L 295.063318 154.816256 
L 302.058933 150.742669 
L 309.422738 146.711692 
L 317.154734 142.74037 
L 324.88673 139.014145 
L 332.986916 135.352006 
L 341.455293 131.765545 
L 350.29186 128.264305 
L 359.496617 124.856126 
L 369.069564 121.547146 
L 379.378892 118.227257 
L 390.05641 115.029746 
L 401.470309 111.856779 
L 412.884207 108.911865 
L 424.666296 106.086943 
L 435.712005 103.618587 
L 435.712005 103.618587 
" clip-path="url(#pfa928516b7)" style="fill: none; stroke: #00b5eb; stroke-width: 1.5; stroke-linecap: square"/>
   </g>
   <g id="line2d_14">
    <path d="M 67.889914 375.617324 
L 140.055209 375.615896 
L 141.52797 374.409512 
L 166.564909 353.264408 
L 176.506047 345.237531 
L 185.710804 338.080322 
L 194.915561 331.201924 
L 204.120318 324.605098 
L 213.325075 318.284049 
L 222.529832 312.229232 
L 232.102779 306.202368 
L 242.043917 300.220159 
L 251.985055 294.503501 
L 261.926192 289.03603 
L 272.60371 283.424365 
L 283.281229 278.065296 
L 294.326937 272.76895 
L 306.109026 267.379201 
L 317.522925 262.395107 
L 329.673204 257.328177 
L 342.559864 252.205002 
L 355.446524 247.321128 
L 369.437754 242.27022 
L 383.428985 237.461682 
L 398.156596 232.642577 
L 413.620588 227.83063 
L 429.82096 223.041522 
L 435.712005 221.359932 
L 435.712005 221.359932 
" clip-path="url(#pfa928516b7)" style="fill: none; stroke: #2adddd; stroke-width: 1.5; stroke-linecap: square"/>
   </g>
   <g id="line2d_15">
    <path d="M 67.889914 375.617324 
L 140.055209 375.612736 
L 141.15978 372.753327 
L 147.787205 355.139178 
L 153.310059 341.073642 
L 158.464723 328.524265 
L 163.619387 316.561552 
L 168.774051 305.190618 
L 173.560525 295.155275 
L 178.346998 285.610467 
L 183.133472 276.539831 
L 187.919946 267.923596 
L 192.706419 259.74131 
L 197.492893 251.972177 
L 202.279367 244.595063 
L 207.434031 237.064891 
L 212.588695 229.939691 
L 217.743358 223.195944 
L 222.898022 216.810467 
L 228.052686 210.760763 
L 233.575541 204.628565 
L 239.098395 198.834525 
L 244.621249 193.356487 
L 250.512293 187.837884 
L 256.403338 182.631532 
L 262.294382 177.715274 
L 268.553617 172.787426 
L 274.812852 168.142172 
L 281.440277 163.50919 
L 288.067702 159.147895 
L 295.063318 154.816256 
L 302.058933 150.742669 
L 309.422738 146.711692 
L 317.154734 142.74037 
L 324.88673 139.014145 
L 332.986916 135.352006 
L 341.455293 131.765545 
L 350.29186 128.264305 
L 359.496617 124.856126 
L 369.069564 121.547146 
L 379.378892 118.227257 
L 390.05641 115.029746 
L 401.470309 111.856779 
L 412.884207 108.911865 
L 424.666296 106.086943 
L 435.712005 103.618587 
L 435.712005 103.618587 
" clip-path="url(#pfa928516b7)" style="fill: none; stroke: #54f6cb; stroke-width: 1.5; stroke-linecap: square"/>
   </g>
   <g id="line2d_16">
    <path d="M 67.889914 375.617324 
L 140.055209 375.614419 
L 141.15978 373.788632 
L 146.682634 363.929674 
L 156.255582 346.279347 
L 167.30129 326.04466 
L 174.665096 313.025883 
L 181.292521 301.765736 
L 187.551755 291.579381 
L 193.4428 282.410911 
L 199.333844 273.655935 
L 205.224889 265.31275 
L 211.115933 257.373174 
L 217.006978 249.825617 
L 222.898022 242.655421 
L 228.789067 235.846564 
L 234.680111 229.382002 
L 240.571156 223.244009 
L 246.4622 217.414858 
L 252.721435 211.541392 
L 258.98067 205.977451 
L 265.239905 200.704285 
L 271.86733 195.417484 
L 278.494755 190.416345 
L 285.12218 185.681439 
L 292.117795 180.952327 
L 299.481601 176.252532 
L 306.845406 171.816923 
L 314.577402 167.422903 
L 322.677589 163.087174 
L 330.777775 159.0037 
L 339.614342 154.814552 
L 348.082718 151.038558 
L 357.287475 147.177683 
L 366.860422 143.409529 
L 376.80156 139.739891 
L 387.479078 136.050823 
L 398.524787 132.485155 
L 409.570495 129.150608 
L 420.984394 125.925827 
L 433.134673 122.717408 
L 435.712005 122.06427 
L 435.712005 122.06427 
" clip-path="url(#pfa928516b7)" style="fill: none; stroke: #80ffb4; stroke-width: 1.5; stroke-linecap: square"/>
   </g>
   <g id="line2d_17">
    <path d="M 67.889914 375.617324 
L 140.055209 375.611333 
L 141.15978 371.890555 
L 145.578063 356.786203 
L 149.628156 343.702726 
L 153.67825 331.36964 
L 157.728343 319.774403 
L 161.778436 308.887527 
L 165.828529 298.670832 
L 169.878622 289.081709 
L 173.928715 280.078228 
L 177.978808 271.618119 
L 182.028901 263.661839 
L 186.078994 256.171892 
L 190.497278 248.492412 
L 194.915561 241.2854 
L 199.333844 234.513018 
L 203.752128 228.139813 
L 208.538601 221.650707 
L 213.325075 215.557029 
L 218.111549 209.827076 
L 222.898022 204.43051 
L 228.052686 198.961676 
L 233.20735 193.81907 
L 238.362014 188.975761 
L 243.884868 184.091206 
L 249.407723 179.496062 
L 255.298767 174.886261 
L 261.189812 170.552236 
L 267.449046 166.223666 
L 273.708281 162.155191 
L 280.335706 158.10717 
L 287.331322 154.09801 
L 294.326937 150.335992 
L 301.690743 146.619312 
L 309.422738 142.960923 
L 317.891115 139.215268 
L 326.359491 135.716414 
L 335.196058 132.303463 
L 344.400815 128.982211 
L 354.341953 125.637778 
L 364.28309 122.519694 
L 374.960609 119.398541 
L 386.006317 116.392609 
L 398.156596 113.321567 
L 410.306875 110.471078 
L 423.561726 107.586841 
L 435.712005 105.128371 
L 435.712005 105.128371 
" clip-path="url(#pfa928516b7)" style="fill: none; stroke: #abf69b; stroke-width: 1.5; stroke-linecap: square"/>
   </g>
   <g id="line2d_18">
    <path d="M 67.889914 375.617324 
L 140.055209 375.611926 
L 141.15978 372.251335 
L 146.682634 355.045503 
L 151.837298 339.722029 
L 156.623772 326.209308 
L 161.042055 314.377837 
L 165.460339 303.168482 
L 169.878622 292.574086 
L 174.296905 282.577604 
L 178.715189 273.155174 
L 183.133472 264.280548 
L 187.551755 255.923386 
L 191.970039 248.054374 
L 196.388322 240.642489 
L 200.806606 233.658417 
L 205.224889 227.073863 
L 209.643172 220.861556 
L 214.429646 214.521758 
L 219.21612 208.558639 
L 224.002593 202.943565 
L 228.789067 197.650969 
L 233.943731 192.283719 
L 239.098395 187.234856 
L 244.621249 182.14986 
L 250.144103 177.374047 
L 255.666957 172.881169 
L 261.558002 168.375679 
L 267.449046 164.141534 
L 273.708281 159.914888 
L 280.335706 155.719263 
L 286.963131 151.78578 
L 293.958747 147.892862 
L 301.322552 144.057212 
L 309.054548 140.292126 
L 317.154734 136.609194 
L 325.623111 133.017619 
L 334.091487 129.665005 
L 342.928054 126.397272 
L 352.132811 123.219533 
L 362.073949 120.022022 
L 372.383277 116.937004 
L 383.428985 113.866643 
L 394.842884 110.92207 
L 406.993163 108.016358 
L 419.511633 105.242568 
L 432.398292 102.595588 
L 435.712005 101.946201 
L 435.712005 101.946201 
" clip-path="url(#pfa928516b7)" style="fill: none; stroke: #d4dd80; stroke-width: 1.5; stroke-linecap: square"/>
   </g>
   <g id="line2d_19">
    <path d="M 67.889914 375.617324 
L 140.055209 375.607966 
L 141.15978 369.857886 
L 144.105302 354.724729 
L 147.050824 340.841158 
L 149.996347 328.054183 
L 152.941869 316.235665 
L 155.887391 305.277203 
L 158.832913 295.087438 
L 162.146626 284.444296 
L 165.460339 274.578032 
L 168.774051 265.406494 
L 172.087764 256.859118 
L 175.401476 248.874886 
L 179.083379 240.599538 
L 182.765282 232.890401 
L 186.447185 225.692252 
L 190.129087 218.956685 
L 194.17918 212.032609 
L 198.229274 205.568047 
L 202.279367 199.520729 
L 206.32946 193.852476 
L 210.747743 188.061846 
L 215.166026 182.644826 
L 219.58431 177.567329 
L 224.370784 172.415178 
L 229.157257 167.593346 
L 233.943731 163.072175 
L 239.098395 158.509415 
L 244.253059 154.236068 
L 249.775913 149.950109 
L 255.298767 145.939244 
L 261.189812 141.93656 
L 267.080856 138.19295 
L 273.340091 134.472861 
L 279.967516 130.796406 
L 286.963131 127.18131 
L 293.958747 123.811993 
L 301.690743 120.346886 
L 309.790929 116.979273 
L 317.891115 113.852326 
L 326.727682 110.688563 
L 335.564248 107.755921 
L 345.137196 104.812711 
L 355.446524 101.886546 
L 366.124042 99.092303 
L 377.53794 96.341694 
L 389.68822 93.652103 
L 402.206689 91.10773 
L 415.82973 88.569834 
L 430.557341 86.063981 
L 435.712005 85.239718 
L 435.712005 85.239718 
" clip-path="url(#pfa928516b7)" style="fill: none; stroke: #ffb360; stroke-width: 1.5; stroke-linecap: square"/>
   </g>
   <g id="line2d_20">
    <path d="M 67.889914 375.617324 
L 140.055209 375.607966 
L 141.15978 369.857886 
L 144.105302 354.724729 
L 147.050824 340.841158 
L 149.996347 328.054183 
L 152.941869 316.235665 
L 155.887391 305.277203 
L 158.832913 295.087438 
L 162.146626 284.444296 
L 165.460339 274.578032 
L 168.774051 265.406494 
L 172.087764 256.859118 
L 175.401476 248.874886 
L 179.083379 240.599538 
L 182.765282 232.890401 
L 186.447185 225.692252 
L 190.129087 218.956685 
L 194.17918 212.032609 
L 198.229274 205.568047 
L 202.279367 199.520729 
L 206.32946 193.852476 
L 210.747743 188.061846 
L 215.166026 182.644826 
L 219.58431 177.567329 
L 224.370784 172.415178 
L 229.157257 167.593346 
L 233.943731 163.072175 
L 239.098395 158.509415 
L 244.253059 154.236068 
L 249.775913 149.950109 
L 255.298767 145.939244 
L 261.189812 141.93656 
L 267.080856 138.19295 
L 273.340091 134.472861 
L 279.967516 130.796406 
L 286.963131 127.18131 
L 293.958747 123.811993 
L 301.690743 120.346886 
L 309.790929 116.979273 
L 317.891115 113.852326 
L 326.727682 110.688563 
L 335.564248 107.755921 
L 345.137196 104.812711 
L 355.446524 101.886546 
L 366.124042 99.092303 
L 377.53794 96.341694 
L 389.68822 93.652103 
L 402.206689 91.10773 
L 415.82973 88.569834 
L 430.557341 86.063981 
L 435.712005 85.239718 
L 435.712005 85.239718 
" clip-path="url(#pfa928516b7)" style="fill: none; stroke: #ff7e41; stroke-width: 1.5; stroke-linecap: square"/>
   </g>
   <g id="line2d_21">
    <path d="M 67.889914 375.617324 
L 140.055209 375.615253 
L 141.15978 374.316511 
L 148.523586 365.024327 
L 159.201104 351.146517 
L 180.18795 323.819697 
L 189.760897 311.75131 
L 198.597464 300.972835 
L 206.69765 291.445071 
L 214.429646 282.690437 
L 221.793452 274.674162 
L 229.157257 266.976274 
L 236.521063 259.597797 
L 243.884868 252.534638 
L 251.248674 245.781346 
L 258.61248 239.328715 
L 265.976285 233.166859 
L 273.340091 227.285553 
L 281.072087 221.398793 
L 288.804083 215.794286 
L 296.536079 210.458397 
L 304.268075 205.37681 
L 312.736451 200.087963 
L 321.204827 195.071144 
L 329.673204 190.309989 
L 338.509771 185.597922 
L 347.714528 180.9496 
L 356.919285 176.548762 
L 366.492232 172.217123 
L 376.43337 167.964911 
L 386.374507 163.945525 
L 397.052025 159.868869 
L 408.097734 155.893797 
L 419.879823 151.904749 
L 431.293722 148.267154 
L 435.712005 146.915201 
L 435.712005 146.915201 
" clip-path="url(#pfa928516b7)" style="fill: none; stroke: #ff4121; stroke-width: 1.5; stroke-linecap: square"/>
   </g>
   <g id="line2d_22">
    <path d="M 67.889914 375.617324 
L 140.055209 375.612205 
L 141.15978 372.437923 
L 145.209873 360.66777 
L 149.259966 349.564533 
L 153.310059 339.093435 
L 157.360152 329.214559 
L 161.410245 319.8886 
L 165.828529 310.299476 
L 170.246812 301.273838 
L 174.665096 292.76805 
L 179.083379 284.740866 
L 183.501662 277.156153 
L 188.288136 269.399633 
L 193.07461 262.083537 
L 197.861083 255.173778 
L 202.647557 248.638311 
L 207.802221 241.986603 
L 212.956885 235.704415 
L 218.111549 229.762772 
L 223.634403 223.745793 
L 229.157257 218.061519 
L 234.680111 212.684042 
L 240.571156 207.260886 
L 246.4622 202.134984 
L 252.721435 196.98965 
L 258.98067 192.129979 
L 265.608095 187.27099 
L 272.23552 182.684028 
L 279.231135 178.11377 
L 286.226751 173.800198 
L 293.590556 169.515261 
L 301.322552 165.27498 
L 309.422738 161.094695 
L 317.522925 157.159507 
L 325.991301 153.286019 
L 335.196058 149.331401 
L 344.400815 145.619834 
L 353.973762 141.995193 
L 363.9149 138.462932 
L 374.592418 134.909536 
L 385.269936 131.581807 
L 397.052025 128.148403 
L 408.834114 124.941689 
L 421.352584 121.759518 
L 434.607434 118.618594 
L 435.712005 118.36702 
L 435.712005 118.36702 
" clip-path="url(#pfa928516b7)" style="fill: none; stroke: #ff0000; stroke-width: 1.5; stroke-linecap: square"/>
   </g>
   <g id="patch_3">
    <path d="M 67.889914 375.583237 
L 67.889914 34.731321 
" style="fill: none; stroke: #000000; stroke-width: 0.8; stroke-linejoin: miter; stroke-linecap: square"/>
   </g>
   <g id="patch_4">
    <path d="M 288.804083 375.583237 
L 288.804083 34.731321 
" style="fill: none; stroke: #000000; stroke-width: 0.8; stroke-linejoin: miter; stroke-linecap: square"/>
   </g>
   <g id="patch_5">
    <path d="M 67.889914 375.583237 
L 288.804083 375.583237 
" style="fill: none; stroke: #000000; stroke-width: 0.8; stroke-linejoin: miter; stroke-linecap: square"/>
   </g>
   <g id="patch_6">
    <path d="M 67.889914 34.731321 
L 288.804083 34.731321 
" style="fill: none; stroke: #000000; stroke-width: 0.8; stroke-linejoin: miter; stroke-linecap: square"/>
   </g>
   <g id="legend_1">
    <g id="line2d_23">
     <path d="M 296.804083 22.2 
L 304.304083 22.2 
L 311.804083 22.2 
" style="fill: none; stroke: #8000ff; stroke-width: 1.5; stroke-linecap: square"/>
    </g>
    <g id="text_12">
     <!-- $n=$ 1, $k=$ 3, $\ell=$ 2 -->
     <g transform="translate(327.804083 29.2) scale(0.2 -0.2)">
      <defs>
       <path id="CMMI12-6e" d="M 1318 1871 
C 1331 1910 1491 2229 1728 2433 
C 1894 2586 2112 2689 2362 2689 
C 2618 2689 2707 2497 2707 2242 
C 2707 1878 2445 1150 2317 805 
C 2259 651 2227 568 2227 453 
C 2227 166 2426 -64 2733 -64 
C 3328 -64 3552 875 3552 913 
C 3552 945 3526 971 3488 971 
C 3430 971 3424 952 3392 843 
C 3245 319 3002 64 2752 64 
C 2688 64 2586 64 2586 269 
C 2586 429 2656 621 2694 710 
C 2822 1063 3091 1780 3091 2145 
C 3091 2528 2867 2816 2381 2816 
C 1811 2816 1510 2415 1395 2255 
C 1376 2618 1114 2816 832 2816 
C 627 2816 486 2695 378 2478 
C 262 2248 173 1865 173 1839 
C 173 1814 198 1782 243 1782 
C 294 1782 301 1788 339 1935 
C 442 2325 557 2689 813 2689 
C 960 2689 1011 2586 1011 2395 
C 1011 2254 947 2005 902 1807 
L 723 1118 
C 698 996 627 709 595 594 
C 550 428 480 128 480 96 
C 480 6 550 -64 646 -64 
C 723 -64 813 -26 864 70 
C 877 102 934 326 966 453 
L 1107 1028 
L 1318 1871 
z
" transform="scale(0.015625)"/>
       <path id="CMR17-3d" d="M 4115 2017 
C 4211 2017 4307 2017 4307 2125 
C 4307 2240 4198 2240 4090 2240 
L 512 2240 
C 403 2240 294 2240 294 2125 
C 294 2017 390 2017 486 2017 
L 4115 2017 
z
M 4090 896 
C 4198 896 4307 896 4307 1011 
C 4307 1119 4211 1119 4115 1119 
L 486 1119 
C 390 1119 294 1119 294 1011 
C 294 896 403 896 512 896 
L 4090 896 
z
" transform="scale(0.015625)"/>
       <path id="CMSS17-31" d="M 1818 4288 
L 1696 4288 
C 1350 3940 947 3890 538 3890 
L 538 3520 
C 723 3520 1024 3520 1325 3667 
L 1325 369 
L 570 369 
L 570 0 
L 2573 0 
L 2573 369 
L 1818 369 
L 1818 4288 
z
" transform="scale(0.015625)"/>
       <path id="CMSS17-2c" d="M 1088 6 
L 1088 510 
L 576 510 
L 576 0 
L 736 0 
L 570 -800 
L 826 -800 
L 1088 6 
z
" transform="scale(0.015625)"/>
       <path id="CMMI12-6b" d="M 1798 4257 
C 1805 4283 1818 4321 1818 4352 
C 1818 4416 1754 4416 1741 4416 
C 1734 4416 1504 4393 1389 4377 
C 1280 4377 1184 4358 1069 4358 
C 915 4345 870 4339 870 4224 
C 870 4160 934 4160 998 4160 
C 1325 4160 1325 4103 1325 4040 
C 1325 4015 1325 4002 1293 3888 
L 378 248 
C 352 152 352 140 352 101 
C 352 -38 461 -64 525 -64 
C 704 -64 742 77 794 275 
L 1094 1469 
C 1555 1418 1830 1226 1830 920 
C 1830 881 1830 856 1811 760 
C 1786 664 1786 588 1786 556 
C 1786 185 2029 -64 2355 -64 
C 2650 -64 2803 204 2854 294 
C 2989 530 3072 888 3072 913 
C 3072 945 3046 971 3008 971 
C 2950 971 2944 945 2918 843 
C 2829 511 2694 64 2368 64 
C 2240 64 2157 128 2157 370 
C 2157 492 2182 632 2208 728 
C 2234 843 2234 849 2234 926 
C 2234 1303 1894 1514 1306 1590 
C 1536 1731 1766 1980 1856 2076 
C 2221 2484 2470 2689 2765 2689 
C 2912 2689 2950 2650 2995 2612 
C 2758 2586 2669 2420 2669 2293 
C 2669 2139 2790 2088 2880 2088 
C 3053 2088 3206 2235 3206 2440 
C 3206 2625 3059 2816 2771 2816 
C 2419 2816 2131 2567 1677 2056 
C 1613 1980 1376 1737 1139 1648 
L 1798 4257 
z
" transform="scale(0.015625)"/>
       <path id="CMSS17-33" d="M 1005 2025 
L 1440 2025 
C 2042 2025 2214 1507 2214 1146 
C 2214 653 1933 267 1472 267 
C 1114 267 608 444 320 912 
C 275 691 275 678 250 526 
C 550 88 1037 -128 1485 -128 
C 2214 -128 2752 473 2752 1138 
C 2752 1638 2400 2057 1920 2215 
C 2304 2424 2586 2816 2586 3273 
C 2586 3805 2093 4229 1491 4229 
C 941 4229 512 3892 333 3530 
C 378 3468 493 3284 550 3189 
C 691 3562 1056 3840 1485 3840 
C 1843 3840 2080 3607 2080 3271 
C 2080 2923 1856 2543 1478 2455 
C 1453 2455 1056 2417 1005 2411 
L 1005 2025 
z
" transform="scale(0.015625)"/>
       <path id="CMMI12-60" d="M 589 1088 
C 186 692 83 597 83 572 
C 83 546 109 501 154 501 
C 186 501 550 851 602 909 
C 640 482 800 -73 1299 -73 
C 1555 -73 1786 86 1888 163 
C 1971 227 2278 488 2278 546 
C 2278 578 2246 616 2214 616 
C 2189 616 2093 520 2067 495 
C 1843 278 1562 55 1306 55 
C 960 55 915 552 915 897 
C 915 960 915 1228 960 1279 
C 1338 1667 2522 2886 2522 4014 
C 2522 4269 2426 4492 2150 4492 
C 1555 4492 1037 3178 947 2936 
C 922 2873 550 1891 589 1088 
z
M 973 1471 
C 979 1509 1267 3186 1805 4082 
C 1914 4255 2022 4364 2150 4364 
C 2368 4364 2381 4159 2381 4018 
C 2381 3794 2317 3218 1760 2412 
C 1594 2175 1338 1855 973 1471 
z
" transform="scale(0.015625)"/>
       <path id="CMSS17-32" d="M 1651 1357 
C 1830 1541 2099 1764 2285 1987 
C 2464 2204 2701 2511 2701 2957 
C 2701 3657 2227 4288 1421 4288 
C 787 4288 422 3893 250 3274 
L 499 2929 
C 640 3510 838 3880 1338 3880 
C 1888 3880 2195 3433 2195 2942 
C 2195 2355 1747 1901 1408 1563 
C 1030 1187 659 804 301 408 
L 301 0 
L 2701 0 
L 2701 433 
L 1613 433 
C 1536 433 1459 433 1382 433 
L 742 433 
L 742 439 
L 1651 1357 
z
" transform="scale(0.015625)"/>
      </defs>
      <use xlink:href="#CMMI12-6e" transform="scale(0.996264)"/>
      <use xlink:href="#CMR17-3d" transform="translate(85.904056 0) scale(0.996264)"/>
      <use xlink:href="#CMSS17-31" transform="translate(188.847957 0) scale(0.996264)"/>
      <use xlink:href="#CMSS17-2c" transform="translate(235.691581 0) scale(0.996264)"/>
      <use xlink:href="#CMMI12-6b" transform="translate(292.944898 0) scale(0.996264)"/>
      <use xlink:href="#CMR17-3d" transform="translate(374.698108 0) scale(0.996264)"/>
      <use xlink:href="#CMSS17-33" transform="translate(477.642009 0) scale(0.996264)"/>
      <use xlink:href="#CMSS17-2c" transform="translate(524.485632 0) scale(0.996264)"/>
      <use xlink:href="#CMMI12-60" transform="translate(581.73895 0) scale(0.996264)"/>
      <use xlink:href="#CMR17-3d" transform="translate(650.347178 0) scale(0.996264)"/>
      <use xlink:href="#CMSS17-32" transform="translate(753.291079 0) scale(0.996264)"/>
     </g>
    </g>
    <g id="line2d_24">
     <path d="M 296.804083 50.075634 
L 304.304083 50.075634 
L 311.804083 50.075634 
" style="fill: none; stroke: #5641fd; stroke-width: 1.5; stroke-linecap: square"/>
    </g>
    <g id="text_13">
     <!-- $n=$ 1, $k=$ 3, $\ell=$ 4 -->
     <g transform="translate(327.804083 57.075634) scale(0.2 -0.2)">
      <defs>
       <path id="CMSS17-34" d="M 2253 1088 
L 2835 1088 
L 2835 1477 
L 2253 1477 
L 2253 4192 
L 1690 4192 
L 166 1477 
L 166 1088 
L 1747 1088 
L 1747 0 
L 2253 0 
L 2253 1088 
z
M 659 1477 
C 1030 2127 1766 3439 1766 3885 
L 1766 1477 
L 659 1477 
z
" transform="scale(0.015625)"/>
      </defs>
      <use xlink:href="#CMMI12-6e" transform="scale(0.996264)"/>
      <use xlink:href="#CMR17-3d" transform="translate(85.904056 0) scale(0.996264)"/>
      <use xlink:href="#CMSS17-31" transform="translate(188.847957 0) scale(0.996264)"/>
      <use xlink:href="#CMSS17-2c" transform="translate(235.691581 0) scale(0.996264)"/>
      <use xlink:href="#CMMI12-6b" transform="translate(292.944898 0) scale(0.996264)"/>
      <use xlink:href="#CMR17-3d" transform="translate(374.698108 0) scale(0.996264)"/>
      <use xlink:href="#CMSS17-33" transform="translate(477.642009 0) scale(0.996264)"/>
      <use xlink:href="#CMSS17-2c" transform="translate(524.485632 0) scale(0.996264)"/>
      <use xlink:href="#CMMI12-60" transform="translate(581.73895 0) scale(0.996264)"/>
      <use xlink:href="#CMR17-3d" transform="translate(650.347178 0) scale(0.996264)"/>
      <use xlink:href="#CMSS17-34" transform="translate(753.291079 0) scale(0.996264)"/>
     </g>
    </g>
    <g id="line2d_25">
     <path d="M 296.804083 77.951267 
L 304.304083 77.951267 
L 311.804083 77.951267 
" style="fill: none; stroke: #2c7ef7; stroke-width: 1.5; stroke-linecap: square"/>
    </g>
    <g id="text_14">
     <!-- $n=$ 3, $k=$ 6, $\ell=$ 4 -->
     <g transform="translate(327.804083 84.951267) scale(0.2 -0.2)">
      <defs>
       <path id="CMSS17-36" d="M 2496 4101 
C 2227 4210 2035 4229 1856 4229 
C 1024 4229 250 3368 250 2006 
C 250 265 986 -128 1510 -128 
C 1798 -128 2086 -39 2362 280 
C 2643 617 2752 898 2752 1389 
C 2752 2179 2362 2880 1779 2880 
C 1357 2880 992 2657 768 2376 
C 832 3258 1254 3840 1862 3840 
C 2029 3840 2246 3816 2496 3710 
L 2496 4101 
z
M 774 1369 
C 774 1420 774 1452 781 1548 
C 781 2045 1069 2491 1536 2491 
C 1837 2491 1990 2332 2106 2135 
C 2240 1886 2246 1650 2246 1388 
C 2246 1140 2246 891 2099 637 
C 1978 439 1818 267 1510 267 
C 902 267 800 1114 774 1369 
z
" transform="scale(0.015625)"/>
      </defs>
      <use xlink:href="#CMMI12-6e" transform="scale(0.996264)"/>
      <use xlink:href="#CMR17-3d" transform="translate(85.904056 0) scale(0.996264)"/>
      <use xlink:href="#CMSS17-33" transform="translate(188.847957 0) scale(0.996264)"/>
      <use xlink:href="#CMSS17-2c" transform="translate(235.691581 0) scale(0.996264)"/>
      <use xlink:href="#CMMI12-6b" transform="translate(292.944898 0) scale(0.996264)"/>
      <use xlink:href="#CMR17-3d" transform="translate(374.698108 0) scale(0.996264)"/>
      <use xlink:href="#CMSS17-36" transform="translate(477.642009 0) scale(0.996264)"/>
      <use xlink:href="#CMSS17-2c" transform="translate(524.485632 0) scale(0.996264)"/>
      <use xlink:href="#CMMI12-60" transform="translate(581.73895 0) scale(0.996264)"/>
      <use xlink:href="#CMR17-3d" transform="translate(650.347178 0) scale(0.996264)"/>
      <use xlink:href="#CMSS17-34" transform="translate(753.291079 0) scale(0.996264)"/>
     </g>
    </g>
    <g id="line2d_26">
     <path d="M 296.804083 105.826901 
L 304.304083 105.826901 
L 311.804083 105.826901 
" style="fill: none; stroke: #00b5eb; stroke-width: 1.5; stroke-linecap: square"/>
    </g>
    <g id="text_15">
     <!-- $n=$ 1, $k=$ 4, $\ell=$ 3 -->
     <g transform="translate(327.804083 112.826901) scale(0.2 -0.2)">
      <use xlink:href="#CMMI12-6e" transform="scale(0.996264)"/>
      <use xlink:href="#CMR17-3d" transform="translate(85.904056 0) scale(0.996264)"/>
      <use xlink:href="#CMSS17-31" transform="translate(188.847957 0) scale(0.996264)"/>
      <use xlink:href="#CMSS17-2c" transform="translate(235.691581 0) scale(0.996264)"/>
      <use xlink:href="#CMMI12-6b" transform="translate(292.944898 0) scale(0.996264)"/>
      <use xlink:href="#CMR17-3d" transform="translate(374.698108 0) scale(0.996264)"/>
      <use xlink:href="#CMSS17-34" transform="translate(477.642009 0) scale(0.996264)"/>
      <use xlink:href="#CMSS17-2c" transform="translate(524.485632 0) scale(0.996264)"/>
      <use xlink:href="#CMMI12-60" transform="translate(581.73895 0) scale(0.996264)"/>
      <use xlink:href="#CMR17-3d" transform="translate(650.347178 0) scale(0.996264)"/>
      <use xlink:href="#CMSS17-33" transform="translate(753.291079 0) scale(0.996264)"/>
     </g>
    </g>
    <g id="line2d_27">
     <path d="M 296.804083 133.702534 
L 304.304083 133.702534 
L 311.804083 133.702534 
" style="fill: none; stroke: #2adddd; stroke-width: 1.5; stroke-linecap: square"/>
    </g>
    <g id="text_16">
     <!-- $n=$ 1, $k=$ 1, $\ell=$ 1 -->
     <g transform="translate(327.804083 140.702534) scale(0.2 -0.2)">
      <use xlink:href="#CMMI12-6e" transform="scale(0.996264)"/>
      <use xlink:href="#CMR17-3d" transform="translate(85.904056 0) scale(0.996264)"/>
      <use xlink:href="#CMSS17-31" transform="translate(188.847957 0) scale(0.996264)"/>
      <use xlink:href="#CMSS17-2c" transform="translate(235.691581 0) scale(0.996264)"/>
      <use xlink:href="#CMMI12-6b" transform="translate(292.944898 0) scale(0.996264)"/>
      <use xlink:href="#CMR17-3d" transform="translate(374.698108 0) scale(0.996264)"/>
      <use xlink:href="#CMSS17-31" transform="translate(477.642009 0) scale(0.996264)"/>
      <use xlink:href="#CMSS17-2c" transform="translate(524.485632 0) scale(0.996264)"/>
      <use xlink:href="#CMMI12-60" transform="translate(581.73895 0) scale(0.996264)"/>
      <use xlink:href="#CMR17-3d" transform="translate(650.347178 0) scale(0.996264)"/>
      <use xlink:href="#CMSS17-31" transform="translate(753.291079 0) scale(0.996264)"/>
     </g>
    </g>
    <g id="line2d_28">
     <path d="M 296.804083 161.578168 
L 304.304083 161.578168 
L 311.804083 161.578168 
" style="fill: none; stroke: #54f6cb; stroke-width: 1.5; stroke-linecap: square"/>
    </g>
    <g id="text_17">
     <!-- $n=$ 1, $k=$ 4, $\ell=$ 3 -->
     <g transform="translate(327.804083 168.578168) scale(0.2 -0.2)">
      <use xlink:href="#CMMI12-6e" transform="scale(0.996264)"/>
      <use xlink:href="#CMR17-3d" transform="translate(85.904056 0) scale(0.996264)"/>
      <use xlink:href="#CMSS17-31" transform="translate(188.847957 0) scale(0.996264)"/>
      <use xlink:href="#CMSS17-2c" transform="translate(235.691581 0) scale(0.996264)"/>
      <use xlink:href="#CMMI12-6b" transform="translate(292.944898 0) scale(0.996264)"/>
      <use xlink:href="#CMR17-3d" transform="translate(374.698108 0) scale(0.996264)"/>
      <use xlink:href="#CMSS17-34" transform="translate(477.642009 0) scale(0.996264)"/>
      <use xlink:href="#CMSS17-2c" transform="translate(524.485632 0) scale(0.996264)"/>
      <use xlink:href="#CMMI12-60" transform="translate(581.73895 0) scale(0.996264)"/>
      <use xlink:href="#CMR17-3d" transform="translate(650.347178 0) scale(0.996264)"/>
      <use xlink:href="#CMSS17-33" transform="translate(753.291079 0) scale(0.996264)"/>
     </g>
    </g>
    <g id="line2d_29">
     <path d="M 296.804083 189.453802 
L 304.304083 189.453802 
L 311.804083 189.453802 
" style="fill: none; stroke: #80ffb4; stroke-width: 1.5; stroke-linecap: square"/>
    </g>
    <g id="text_18">
     <!-- $n=$ 3, $k=$ 6, $\ell=$ 4 -->
     <g transform="translate(327.804083 196.453802) scale(0.2 -0.2)">
      <use xlink:href="#CMMI12-6e" transform="scale(0.996264)"/>
      <use xlink:href="#CMR17-3d" transform="translate(85.904056 0) scale(0.996264)"/>
      <use xlink:href="#CMSS17-33" transform="translate(188.847957 0) scale(0.996264)"/>
      <use xlink:href="#CMSS17-2c" transform="translate(235.691581 0) scale(0.996264)"/>
      <use xlink:href="#CMMI12-6b" transform="translate(292.944898 0) scale(0.996264)"/>
      <use xlink:href="#CMR17-3d" transform="translate(374.698108 0) scale(0.996264)"/>
      <use xlink:href="#CMSS17-36" transform="translate(477.642009 0) scale(0.996264)"/>
      <use xlink:href="#CMSS17-2c" transform="translate(524.485632 0) scale(0.996264)"/>
      <use xlink:href="#CMMI12-60" transform="translate(581.73895 0) scale(0.996264)"/>
      <use xlink:href="#CMR17-3d" transform="translate(650.347178 0) scale(0.996264)"/>
      <use xlink:href="#CMSS17-34" transform="translate(753.291079 0) scale(0.996264)"/>
     </g>
    </g>
    <g id="line2d_30">
     <path d="M 296.804083 217.329435 
L 304.304083 217.329435 
L 311.804083 217.329435 
" style="fill: none; stroke: #abf69b; stroke-width: 1.5; stroke-linecap: square"/>
    </g>
    <g id="text_19">
     <!-- $n=$ 1, $k=$ 5, $\ell=$ 5 -->
     <g transform="translate(327.804083 224.329435) scale(0.2 -0.2)">
      <defs>
       <path id="CMSS17-35" d="M 934 3752 
L 2502 3752 
L 2502 4160 
L 467 4160 
L 467 1781 
L 896 1781 
C 1011 2046 1248 2240 1555 2240 
C 1843 2240 2163 1989 2163 1266 
C 2163 493 1709 267 1376 267 
C 966 267 589 512 422 851 
L 218 499 
C 512 49 992 -128 1376 -128 
C 2118 -128 2701 497 2701 1253 
C 2701 2030 2182 2629 1562 2629 
C 1338 2629 1120 2553 934 2399 
L 934 3752 
z
" transform="scale(0.015625)"/>
      </defs>
      <use xlink:href="#CMMI12-6e" transform="scale(0.996264)"/>
      <use xlink:href="#CMR17-3d" transform="translate(85.904056 0) scale(0.996264)"/>
      <use xlink:href="#CMSS17-31" transform="translate(188.847957 0) scale(0.996264)"/>
      <use xlink:href="#CMSS17-2c" transform="translate(235.691581 0) scale(0.996264)"/>
      <use xlink:href="#CMMI12-6b" transform="translate(292.944898 0) scale(0.996264)"/>
      <use xlink:href="#CMR17-3d" transform="translate(374.698108 0) scale(0.996264)"/>
      <use xlink:href="#CMSS17-35" transform="translate(477.642009 0) scale(0.996264)"/>
      <use xlink:href="#CMSS17-2c" transform="translate(524.485632 0) scale(0.996264)"/>
      <use xlink:href="#CMMI12-60" transform="translate(581.73895 0) scale(0.996264)"/>
      <use xlink:href="#CMR17-3d" transform="translate(650.347178 0) scale(0.996264)"/>
      <use xlink:href="#CMSS17-35" transform="translate(753.291079 0) scale(0.996264)"/>
     </g>
    </g>
    <g id="line2d_31">
     <path d="M 296.804083 245.205069 
L 304.304083 245.205069 
L 311.804083 245.205069 
" style="fill: none; stroke: #d4dd80; stroke-width: 1.5; stroke-linecap: square"/>
    </g>
    <g id="text_20">
     <!-- $n=$ 4, $k=$ 10, $\ell=$ 7 -->
     <g transform="translate(327.804083 252.205069) scale(0.2 -0.2)">
      <defs>
       <path id="CMSS17-30" d="M 2758 2044 
C 2758 2405 2752 3077 2490 3596 
C 2227 4096 1805 4229 1504 4229 
C 1069 4229 698 3975 506 3570 
C 301 3146 243 2709 243 2044 
C 243 1589 262 1031 493 543 
C 755 5 1197 -128 1498 -128 
C 1894 -128 2278 81 2496 518 
C 2720 974 2758 1474 2758 2044 
z
M 1498 261 
C 1011 261 864 811 819 995 
C 742 1310 730 1614 730 2114 
C 730 2506 730 2948 851 3297 
C 998 3701 1254 3840 1498 3840 
C 1971 3840 2125 3372 2176 3208 
C 2272 2873 2272 2481 2272 2114 
C 2272 1526 2272 261 1498 261 
z
" transform="scale(0.015625)"/>
       <path id="CMSS17-37" d="M 1389 3776 
C 1466 3776 1542 3776 1619 3776 
L 2355 3776 
C 1440 2711 915 1365 915 -32 
L 1427 -32 
C 1427 1323 1875 2696 2752 3795 
L 2752 4209 
L 250 4209 
L 250 3776 
L 1389 3776 
z
" transform="scale(0.015625)"/>
      </defs>
      <use xlink:href="#CMMI12-6e" transform="scale(0.996264)"/>
      <use xlink:href="#CMR17-3d" transform="translate(85.904056 0) scale(0.996264)"/>
      <use xlink:href="#CMSS17-34" transform="translate(188.847957 0) scale(0.996264)"/>
      <use xlink:href="#CMSS17-2c" transform="translate(235.691581 0) scale(0.996264)"/>
      <use xlink:href="#CMMI12-6b" transform="translate(292.944898 0) scale(0.996264)"/>
      <use xlink:href="#CMR17-3d" transform="translate(374.698108 0) scale(0.996264)"/>
      <use xlink:href="#CMSS17-31" transform="translate(477.642009 0) scale(0.996264)"/>
      <use xlink:href="#CMSS17-30" transform="translate(524.485632 0) scale(0.996264)"/>
      <use xlink:href="#CMSS17-2c" transform="translate(571.329256 0) scale(0.996264)"/>
      <use xlink:href="#CMMI12-60" transform="translate(628.582574 0) scale(0.996264)"/>
      <use xlink:href="#CMR17-3d" transform="translate(697.190802 0) scale(0.996264)"/>
      <use xlink:href="#CMSS17-37" transform="translate(800.134703 0) scale(0.996264)"/>
     </g>
    </g>
    <g id="line2d_32">
     <path d="M 296.804083 273.080702 
L 304.304083 273.080702 
L 311.804083 273.080702 
" style="fill: none; stroke: #ffb360; stroke-width: 1.5; stroke-linecap: square"/>
    </g>
    <g id="text_21">
     <!-- $n=$ 1, $k=$ 7, $\ell=$ 5 -->
     <g transform="translate(327.804083 280.080702) scale(0.2 -0.2)">
      <use xlink:href="#CMMI12-6e" transform="scale(0.996264)"/>
      <use xlink:href="#CMR17-3d" transform="translate(85.904056 0) scale(0.996264)"/>
      <use xlink:href="#CMSS17-31" transform="translate(188.847957 0) scale(0.996264)"/>
      <use xlink:href="#CMSS17-2c" transform="translate(235.691581 0) scale(0.996264)"/>
      <use xlink:href="#CMMI12-6b" transform="translate(292.944898 0) scale(0.996264)"/>
      <use xlink:href="#CMR17-3d" transform="translate(374.698108 0) scale(0.996264)"/>
      <use xlink:href="#CMSS17-37" transform="translate(477.642009 0) scale(0.996264)"/>
      <use xlink:href="#CMSS17-2c" transform="translate(524.485632 0) scale(0.996264)"/>
      <use xlink:href="#CMMI12-60" transform="translate(581.73895 0) scale(0.996264)"/>
      <use xlink:href="#CMR17-3d" transform="translate(650.347178 0) scale(0.996264)"/>
      <use xlink:href="#CMSS17-35" transform="translate(753.291079 0) scale(0.996264)"/>
     </g>
    </g>
    <g id="line2d_33">
     <path d="M 296.804083 300.956336 
L 304.304083 300.956336 
L 311.804083 300.956336 
" style="fill: none; stroke: #ff7e41; stroke-width: 1.5; stroke-linecap: square"/>
    </g>
    <g id="text_22">
     <!-- $n=$ 1, $k=$ 7, $\ell=$ 5 -->
     <g transform="translate(327.804083 307.956336) scale(0.2 -0.2)">
      <use xlink:href="#CMMI12-6e" transform="scale(0.996264)"/>
      <use xlink:href="#CMR17-3d" transform="translate(85.904056 0) scale(0.996264)"/>
      <use xlink:href="#CMSS17-31" transform="translate(188.847957 0) scale(0.996264)"/>
      <use xlink:href="#CMSS17-2c" transform="translate(235.691581 0) scale(0.996264)"/>
      <use xlink:href="#CMMI12-6b" transform="translate(292.944898 0) scale(0.996264)"/>
      <use xlink:href="#CMR17-3d" transform="translate(374.698108 0) scale(0.996264)"/>
      <use xlink:href="#CMSS17-37" transform="translate(477.642009 0) scale(0.996264)"/>
      <use xlink:href="#CMSS17-2c" transform="translate(524.485632 0) scale(0.996264)"/>
      <use xlink:href="#CMMI12-60" transform="translate(581.73895 0) scale(0.996264)"/>
      <use xlink:href="#CMR17-3d" transform="translate(650.347178 0) scale(0.996264)"/>
      <use xlink:href="#CMSS17-35" transform="translate(753.291079 0) scale(0.996264)"/>
     </g>
    </g>
    <g id="line2d_34">
     <path d="M 296.804083 328.83197 
L 304.304083 328.83197 
L 311.804083 328.83197 
" style="fill: none; stroke: #ff4121; stroke-width: 1.5; stroke-linecap: square"/>
    </g>
    <g id="text_23">
     <!-- $n=$ 3, $k=$ 3, $\ell=$ 3 -->
     <g transform="translate(327.804083 335.83197) scale(0.2 -0.2)">
      <use xlink:href="#CMMI12-6e" transform="scale(0.996264)"/>
      <use xlink:href="#CMR17-3d" transform="translate(85.904056 0) scale(0.996264)"/>
      <use xlink:href="#CMSS17-33" transform="translate(188.847957 0) scale(0.996264)"/>
      <use xlink:href="#CMSS17-2c" transform="translate(235.691581 0) scale(0.996264)"/>
      <use xlink:href="#CMMI12-6b" transform="translate(292.944898 0) scale(0.996264)"/>
      <use xlink:href="#CMR17-3d" transform="translate(374.698108 0) scale(0.996264)"/>
      <use xlink:href="#CMSS17-33" transform="translate(477.642009 0) scale(0.996264)"/>
      <use xlink:href="#CMSS17-2c" transform="translate(524.485632 0) scale(0.996264)"/>
      <use xlink:href="#CMMI12-60" transform="translate(581.73895 0) scale(0.996264)"/>
      <use xlink:href="#CMR17-3d" transform="translate(650.347178 0) scale(0.996264)"/>
      <use xlink:href="#CMSS17-33" transform="translate(753.291079 0) scale(0.996264)"/>
     </g>
    </g>
    <g id="line2d_35">
     <path d="M 296.804083 356.707603 
L 304.304083 356.707603 
L 311.804083 356.707603 
" style="fill: none; stroke: #ff0000; stroke-width: 1.5; stroke-linecap: square"/>
    </g>
    <g id="text_24">
     <!-- $n=$ 1, $k=$ 4, $\ell=$ 4 -->
     <g transform="translate(327.804083 363.707603) scale(0.2 -0.2)">
      <use xlink:href="#CMMI12-6e" transform="scale(0.996264)"/>
      <use xlink:href="#CMR17-3d" transform="translate(85.904056 0) scale(0.996264)"/>
      <use xlink:href="#CMSS17-31" transform="translate(188.847957 0) scale(0.996264)"/>
      <use xlink:href="#CMSS17-2c" transform="translate(235.691581 0) scale(0.996264)"/>
      <use xlink:href="#CMMI12-6b" transform="translate(292.944898 0) scale(0.996264)"/>
      <use xlink:href="#CMR17-3d" transform="translate(374.698108 0) scale(0.996264)"/>
      <use xlink:href="#CMSS17-34" transform="translate(477.642009 0) scale(0.996264)"/>
      <use xlink:href="#CMSS17-2c" transform="translate(524.485632 0) scale(0.996264)"/>
      <use xlink:href="#CMMI12-60" transform="translate(581.73895 0) scale(0.996264)"/>
      <use xlink:href="#CMR17-3d" transform="translate(650.347178 0) scale(0.996264)"/>
      <use xlink:href="#CMSS17-34" transform="translate(753.291079 0) scale(0.996264)"/>
     </g>
    </g>
   </g>
  </g>
 </g>
 <defs>
  <clipPath id="pfa928516b7">
   <rect x="67.889914" y="34.731321" width="220.914169" height="340.851916"/>
  </clipPath>
 </defs>
</svg>
